<?xml version="1.0" encoding="UTF-8"?>
<svg width="100" height="100" viewBox="0 0 200 200"
     xmlns="http://www.w3.org/2000/svg" version="1.1">
  <!-- Nền trắng -->
  <rect width="200" height="200" fill="white" rx="20" ry="20"/>
  <!-- Khung lịch xanh dương -->
  <rect x="20" y="40" width="160" height="120" rx="15" ry="15"
        fill="white" stroke="#276ef1" stroke-width="16"/>
  <!-- Chốt treo lịch xanh lá -->
  <rect x="50" y="0" width="20" height="40" rx="10" ry="10"
        fill="#3fbf71"/>
  <rect x="130" y="0" width="20" height="40" rx="10" ry="10"
        fill="#3fbf71"/>
  <!-- Ô lịch nhỏ -->
  <g fill="#276ef1">
    <rect x="40"  y="60" width="20" height="20" rx="4" ry="4"/>
    <rect x="80"  y="60" width="20" height="20" rx="4" ry="4"/>
    <rect x="120" y="60" width="20" height="20" rx="4" ry="4"/>
    <rect x="40"  y="100" width="20" height="20" rx="4" ry="4"/>
    <rect x="80"  y="100" width="20" height="20" rx="4" ry="4"/>
    <rect x="120" y="100" width="20" height="20" rx="4" ry="4"/>
  </g>
  <!-- Dấu check xanh lá -->
  <path d="M50,140 L85,175 L150,95"
        fill="none" stroke="#3fbf71" stroke-width="16" stroke-linecap="round"/>
</svg>
